<svg width="48" height="39" viewBox="0 0 48 39" fill="none" xmlns="http://www.w3.org/2000/svg">
<path d="M14.6267 38.2709C14.6267 38.2709 23.0834 30.5985 32.2836 30.5985C42.6301 30.5985 45.6193 25.6255 48.0001 20.7719C48.0001 20.7719 40.0232 19.7073 36.4048 11.2961C36.4048 11.2961 27.7774 -0.717499 4.46562 0.0338269C4.46562 0.0338269 17.6933 7.78565 20.9144 12.9992C24.2161 18.343 32.755 24.1524 32.3938 23.9744C24.9161 20.2984 19.8303 13.3132 19.6581 12.8644C19.486 12.4156 12.3945 10.3476 0 14.5131C0 14.5131 13.3178 11.9383 28.5045 24.6345C28.5045 24.6345 26.9691 25.3234 25.8683 26.0831C19.0606 30.7809 14.6095 38.2752 14.6267 38.2709Z" fill="#FA368B"/>
</svg>
