<svg width="201" height="44" viewBox="0 0 201 44" fill="none" xmlns="http://www.w3.org/2000/svg">
<path d="M71.7962 34.1684C71.2106 34.9041 70.5022 35.5648 69.6707 36.1495C68.9528 36.6401 68.0648 37.0932 67.0067 37.5081C65.9488 37.9232 64.7111 38.131 63.2941 38.131C61.7637 38.131 60.3419 37.8572 59.0288 37.31C57.7159 36.7627 56.5773 36.0223 55.614 35.0881C54.6503 34.1543 53.8946 33.0597 53.3467 31.8049C52.7986 30.5503 52.5249 29.2151 52.5249 27.8001C52.5249 26.3848 52.7986 25.0498 53.3467 23.7951C53.8946 22.5403 54.6503 21.4458 55.614 20.5118C56.5773 19.5778 57.7159 18.8372 59.0288 18.29C60.3419 17.7428 61.7637 17.4691 63.2941 17.4691C64.6733 17.4691 65.8873 17.6766 66.9358 18.0919C67.9844 18.5069 68.8583 18.9599 69.5574 19.4504C70.3697 20.0355 71.0688 20.6959 71.6545 21.4316L68.8205 24.2619C68.4049 23.7338 67.9229 23.2619 67.3752 22.8468C66.9028 22.4882 66.3266 22.1627 65.6465 21.8704C64.9662 21.578 64.182 21.4316 63.2941 21.4316C62.4062 21.4316 61.5747 21.5966 60.8002 21.9271C60.0255 22.2572 59.3501 22.7101 58.7739 23.2855C58.1977 23.861 57.7442 24.5355 57.4135 25.3092C57.0828 26.0829 56.9176 26.9132 56.9176 27.8001C56.9176 28.6867 57.0828 29.5171 57.4135 30.2906C57.7442 31.0645 58.1977 31.7389 58.7739 32.3143C59.3501 32.8899 60.0255 33.3428 60.8002 33.6729C61.5747 34.0032 62.4062 34.1684 63.2941 34.1684C64.2198 34.1684 65.0323 34.022 65.7314 33.7297C66.4305 33.4371 67.0257 33.1116 67.517 32.7532C68.0836 32.3379 68.5654 31.8663 68.9621 31.3379L71.7962 34.1684Z" fill="white"/>
<path d="M72.4636 23.8119H76.2894V31.5955C76.2894 32.4445 76.5162 33.1049 76.9697 33.5766C77.4231 34.0484 78.0464 34.2843 78.8401 34.2843C79.6904 34.2843 80.3988 33.9965 80.9655 33.4209C81.5324 32.8453 81.816 32.0954 81.816 31.1707V23.8119H85.6418V37.6805H81.816V35.6994H81.6741C81.3719 36.1145 81.0223 36.4919 80.6255 36.8315C80.2854 37.1146 79.8556 37.374 79.3361 37.6098C78.8165 37.8457 78.226 37.9638 77.5649 37.9638C76.8468 37.9638 76.1808 37.8267 75.5668 37.5533C74.9527 37.2797 74.4143 36.8929 73.9513 36.3929C73.4886 35.8928 73.1249 35.2843 72.8603 34.5671C72.5958 33.8504 72.4636 33.0482 72.4636 32.1614V23.8119Z" fill="white"/>
<path d="M94.4603 34.4427C94.9517 34.4427 95.4145 34.3483 95.8489 34.1597C96.2836 33.9711 96.6613 33.7163 96.9827 33.3955C97.3039 33.0748 97.554 32.6878 97.7335 32.2351C97.9131 31.7821 98.0028 31.2916 98.0028 30.7632C98.0028 30.2349 97.9131 29.7442 97.7335 29.2915C97.554 28.8385 97.3039 28.4518 96.9827 28.1308C96.6613 27.8102 96.2836 27.5556 95.8489 27.3668C95.4145 27.178 94.9517 27.0837 94.4603 27.0837C93.969 27.0837 93.5062 27.178 93.0716 27.3668C92.6371 27.5556 92.2593 27.8102 91.938 28.1308C91.6168 28.4518 91.3665 28.8385 91.187 29.2915C91.0075 29.7442 90.9179 30.2349 90.9179 30.7632C90.9179 31.2916 91.0075 31.7821 91.187 32.2351C91.3665 32.6878 91.6168 33.0748 91.938 33.3955C92.2593 33.7163 92.6371 33.9711 93.0716 34.1597C93.5062 34.3483 93.969 34.4427 94.4603 34.4427ZM97.8613 35.7164H97.7194C97.436 36.1315 97.0771 36.5088 96.6426 36.8486C96.2646 37.1315 95.8016 37.3912 95.254 37.6268C94.7059 37.8628 94.0636 37.9805 93.3267 37.9805C92.5144 37.9805 91.7302 37.8061 90.9743 37.457C90.2188 37.1079 89.5527 36.6126 88.9765 35.9712C88.4001 35.3297 87.942 34.5653 87.6019 33.6785C87.2619 32.7916 87.0919 31.8198 87.0919 30.7632C87.0919 29.7065 87.2619 28.7349 87.6019 27.8479C87.942 26.961 88.4001 26.2016 88.9765 25.5695C89.5527 24.9375 90.2188 24.4422 90.9743 24.0836C91.7302 23.725 92.5144 23.5458 93.3267 23.5458C94.0636 23.5458 94.7059 23.6637 95.254 23.8997C95.8016 24.1355 96.2646 24.395 96.6426 24.6778C97.0771 25.0175 97.436 25.395 97.7194 25.8101H97.8613V17.8851H101.687V37.6977H97.8613V35.7164Z" fill="white"/>
<path d="M110.598 34.4427C111.09 34.4427 111.552 34.3483 111.987 34.1597C112.421 33.9711 112.799 33.7163 113.12 33.3955C113.442 33.0748 113.692 32.6878 113.872 32.2351C114.051 31.7821 114.141 31.2916 114.141 30.7632C114.141 30.2349 114.051 29.7442 113.872 29.2915C113.692 28.8385 113.442 28.4518 113.12 28.1308C112.799 27.8102 112.421 27.5556 111.987 27.3668C111.552 27.178 111.09 27.0837 110.598 27.0837C110.107 27.0837 109.644 27.178 109.21 27.3668C108.775 27.5556 108.397 27.8102 108.076 28.1308C107.755 28.4518 107.504 28.8385 107.325 29.2915C107.145 29.7442 107.056 30.2349 107.056 30.7632C107.056 31.2916 107.145 31.7821 107.325 32.2351C107.504 32.6878 107.755 33.0748 108.076 33.3955C108.397 33.7163 108.775 33.9711 109.21 34.1597C109.644 34.3483 110.107 34.4427 110.598 34.4427ZM113.999 35.7164H113.857C113.574 36.1315 113.215 36.5088 112.78 36.8486C112.402 37.1315 111.94 37.3912 111.392 37.6268C110.844 37.8628 110.201 37.9805 109.465 37.9805C108.652 37.9805 107.868 37.8061 107.112 37.457C106.357 37.1079 105.69 36.6126 105.114 35.9712C104.538 35.3297 104.08 34.5653 103.74 33.6785C103.4 32.7916 103.23 31.8198 103.23 30.7632C103.23 29.7065 103.4 28.7349 103.74 27.8479C104.08 26.961 104.538 26.2016 105.114 25.5695C105.69 24.9375 106.357 24.4422 107.112 24.0836C107.868 23.725 108.652 23.5458 109.465 23.5458C110.201 23.5458 110.844 23.6637 111.392 23.8997C111.94 24.1355 112.402 24.395 112.78 24.6778C113.215 25.0175 113.574 25.395 113.857 25.8101H113.999V17.8851H117.825V37.6977H113.999V35.7164Z" fill="white"/>
<path d="M124.235 17.8851H120.409V37.6978H124.235V17.8851Z" fill="white"/>
<path d="M125.76 39.6622C125.892 39.7187 126.043 39.766 126.213 39.8037C126.534 39.898 126.903 39.9451 127.318 39.9451C127.961 39.9451 128.471 39.7847 128.849 39.4641C129.227 39.1433 129.519 38.7375 129.727 38.247L130.011 37.5393L124.626 23.8119H128.735L131.995 33.0106H132.136L135.254 23.8119H139.363L133.695 38.8132C133.109 40.379 132.387 41.5726 131.527 42.3935C130.667 43.2143 129.595 43.6247 128.31 43.6247C127.951 43.6247 127.616 43.6058 127.304 43.568C126.992 43.5303 126.723 43.483 126.497 43.4265C126.232 43.351 125.987 43.2757 125.76 43.2V39.6622Z" fill="white"/>
<path d="M140.347 17.8851H144.173L153.809 30.1973V17.8851H158.06V37.6976H154.234L144.599 25.3857V37.6976H140.347V17.8851Z" fill="white"/>
<path d="M170.384 29.4055C170.176 28.764 169.803 28.2025 169.265 27.7214C168.726 27.2403 168.06 26.9996 167.267 26.9996C166.473 26.9996 165.807 27.2403 165.269 27.7214C164.73 28.2025 164.357 28.764 164.149 29.4055H170.384ZM173.501 35.7738C173.086 36.1891 172.576 36.5664 171.971 36.906C171.461 37.1891 170.838 37.4485 170.101 37.6844C169.364 37.9202 168.514 38.0381 167.55 38.0381C166.53 38.0381 165.571 37.8493 164.673 37.4722C163.776 37.0948 162.992 36.5759 162.321 35.9155C161.651 35.2549 161.126 34.4908 160.748 33.6229C160.371 32.7549 160.182 31.8207 160.182 30.8206C160.182 29.8396 160.371 28.9102 160.748 28.0327C161.126 27.1553 161.646 26.3866 162.307 25.7262C162.968 25.0657 163.734 24.5468 164.603 24.1695C165.472 23.7919 166.407 23.6033 167.408 23.6033C168.372 23.6033 169.274 23.7873 170.115 24.1553C170.956 24.5232 171.688 25.0185 172.311 25.6412C172.935 26.2638 173.431 26.9949 173.799 27.8347C174.167 28.6744 174.352 29.5753 174.352 30.5378C174.352 30.8018 174.342 31.033 174.323 31.2311C174.304 31.4294 174.286 31.6038 174.267 31.7548C174.248 31.9434 174.229 32.1039 174.21 32.236H164.149C164.357 32.8774 164.759 33.4389 165.354 33.9199C165.949 34.401 166.775 34.6417 167.834 34.6417C168.438 34.6417 168.967 34.5662 169.421 34.4153C169.874 34.2643 170.261 34.085 170.582 33.8775C170.941 33.6511 171.253 33.3868 171.518 33.085L173.501 35.7738Z" fill="white"/>
<path d="M176.66 33.085C176.943 33.387 177.274 33.6511 177.652 33.8776C177.973 34.085 178.36 34.2643 178.814 34.4153C179.267 34.5663 179.777 34.6417 180.344 34.6417C180.986 34.6417 181.431 34.5474 181.676 34.3588C181.922 34.17 182.045 33.934 182.045 33.6511C182.045 33.387 181.87 33.1653 181.52 32.986C181.171 32.8068 180.732 32.6321 180.202 32.4623C179.674 32.2925 179.107 32.0944 178.502 31.8679C177.898 31.6416 177.331 31.3585 176.802 31.0189C176.273 30.6791 175.833 30.2547 175.484 29.7453C175.134 29.2359 174.959 28.6035 174.959 27.849C174.959 27.2828 175.082 26.745 175.328 26.2356C175.574 25.7262 175.928 25.2733 176.391 24.877C176.854 24.4806 177.43 24.1693 178.12 23.9429C178.809 23.7166 179.598 23.6033 180.486 23.6033C181.374 23.6033 182.153 23.7166 182.824 23.9429C183.495 24.1693 184.057 24.4148 184.51 24.6789C185.039 24.9995 185.493 25.3486 185.871 25.7262L183.603 28.1319C183.377 27.9243 183.103 27.7355 182.781 27.5657C182.517 27.4149 182.191 27.2828 181.804 27.1696C181.416 27.0563 180.977 26.9998 180.486 26.9998C179.995 26.9998 179.636 27.0894 179.409 27.2687C179.182 27.4478 179.069 27.6412 179.069 27.849C179.069 28.1131 179.244 28.3348 179.593 28.5141C179.943 28.6933 180.382 28.8678 180.911 29.0376C181.44 29.2074 182.007 29.4057 182.611 29.632C183.216 29.8583 183.783 30.1414 184.312 30.481C184.841 30.8206 185.28 31.2452 185.63 31.7548C185.979 32.2642 186.154 32.8962 186.154 33.6511C186.154 34.2548 186.031 34.821 185.786 35.3493C185.54 35.8777 185.172 36.3399 184.68 36.7362C184.189 37.1326 183.585 37.4485 182.867 37.6844C182.149 37.9202 181.308 38.0383 180.344 38.0383C179.381 38.0383 178.531 37.9061 177.794 37.642C177.057 37.3777 176.433 37.0853 175.923 36.7645C175.318 36.4059 174.808 35.9813 174.393 35.4909L176.66 33.085Z" fill="white"/>
<path d="M188.411 27.6442H186.002V24.1062H187.277C188.316 24.1062 188.836 23.5403 188.836 22.408V19.8606H192.237V24.1062H195.354V27.6442H192.237V32.3142C192.237 32.9559 192.402 33.4463 192.733 33.7859C193.064 34.1257 193.512 34.2955 194.079 34.2955C194.495 34.2955 194.863 34.2483 195.184 34.154C195.354 34.1162 195.506 34.069 195.638 34.0125V37.5504C195.411 37.6259 195.165 37.7013 194.901 37.7768C194.674 37.8335 194.405 37.8805 194.093 37.9183C193.782 37.9561 193.446 37.975 193.087 37.975C191.67 37.975 190.536 37.5363 189.686 36.6588C188.836 35.7813 188.411 34.5219 188.411 32.8802V27.6442Z" fill="white"/>
<path d="M196.466 35.746C196.466 35.1046 196.683 34.5667 197.118 34.1328C197.552 33.6987 198.091 33.4818 198.733 33.4818C199.375 33.4818 199.914 33.6987 200.348 34.1328C200.783 34.5667 201 35.1046 201 35.746C201 36.3877 200.783 36.9255 200.348 37.3594C199.914 37.7935 199.375 38.0104 198.733 38.0104C198.091 38.0104 197.552 37.7935 197.118 37.3594C196.683 36.9255 196.466 36.3877 196.466 35.746Z" fill="white"/>
<path d="M40.6485 16.3664C40.6485 16.3664 43.2869 19.0973 48.0484 20.1867C50.9315 15.6757 56.8264 13.1578 63.1498 12.2354C56.1471 11.7633 53.3709 12.6877 51.9179 12.844C50.2635 13.0219 45.5878 9.40463 40.6485 16.3664Z" fill="white"/>
<path d="M23.4419 21.4204C23.4419 21.4204 21.0774 24.3706 19.5216 27.5647C20.6096 25.9163 21.9401 24.384 25.1723 22.7128L23.4419 21.4204Z" fill="white"/>
<path d="M17.0648 9.68524C18.0594 10.6375 18.709 11.4608 19.3146 12.3441C16.4927 10.9284 11.5691 10.9985 8.43248 11.4227C10.1797 10.609 14.1731 9.53161 17.0648 9.68524Z" fill="white"/>
<path d="M34.8124 9.10294C34.8124 9.10294 36.5018 10.198 37.2631 12.3332C38.7239 9.43448 44.284 7.04047 48.0419 6.09477C43.7883 6.24081 42.1706 6.96932 41.3035 7.15312C40.3167 7.36224 36.3828 5.96943 34.8124 9.10294Z" fill="white"/>
<path d="M14.5842 38.1597C14.5842 38.1597 23.0163 30.5096 32.1898 30.5096C42.5063 30.5096 45.4868 25.5511 47.8607 20.7116C47.8607 20.7116 39.907 19.65 36.299 11.2633C36.299 11.2633 27.6967 -0.715415 4.45265 0.0337286C4.45265 0.0337286 17.6419 7.76304 20.8537 12.9615C24.1458 18.2897 32.6598 24.0822 32.2997 23.9048C24.8438 20.2394 19.7727 13.2745 19.601 12.827C19.4294 12.3795 12.3585 10.3175 0 14.4709C0 14.4709 13.2792 11.9036 28.4217 24.563C28.4217 24.563 26.8908 25.2498 25.7931 26.0073C19.0052 30.6915 14.5671 38.164 14.5842 38.1597Z" fill="white"/>
</svg>
